# xmcd
#
# Track frame offsets:
#	150
#	24824
#	43057
#	64035
#	79897
#	93731
#	108871
#	119824
#	132139
#	148812
#
# Disc length: 2196 seconds
#
# Revision: 1
# Processed by: cddbd v1.5.2PL0 Copyright (c) Steve Scherf et al.
# Submitted via: audiograbber 1.83.01
#
DISCID=8a08920a
DTITLE=Roy Rogers Jr. and the High Riders - Wayfaring Stranger
DYEAR=2004
DGENRE=Country
TTITLE0=Born to be a Cowboy
TTITLE1=Adobe Walls
TTITLE2=The Old Cowboy
TTITLE3=Night Rider's Lament
TTITLE4=Spanish Eyes
TTITLE5=Wayfaring Stranger
TTITLE6=Skyball Paint
TTITLE7=Navajo Trail
TTITLE8=Mornin' Stars at 4 am
TTITLE9=What Ol' Roy Would Do
EXTD=
EXTT0=
EXTT1=
EXTT2=
EXTT3=
EXTT4=
EXTT5=
EXTT6=
EXTT7=
EXTT8=
EXTT9=
PLAYORDER=
